<?xml version="1.0" standalone="no"?>
<!DOCTYPE svg PUBLIC "-//W3C//DTD SVG 20010904//EN"
 "http://www.w3.org/TR/2001/REC-SVG-20010904/DTD/svg10.dtd">
<svg version="1.0" xmlns="http://www.w3.org/2000/svg"
 width="328.000000pt" height="154.000000pt" viewBox="0 0 328.000000 154.000000"
 preserveAspectRatio="xMidYMid meet">

<g transform="translate(0.000000,154.000000) scale(0.100000,-0.100000)"
fill="#000000" stroke="none">
<path d="M1147 1260 c-87 -27 -195 -183 -283 -410 l-29 -75 -6 128 c-4 96 -9
131 -20 138 -37 23 -52 9 -121 -122 -59 -114 -59 -114 -53 -64 3 28 8 80 12
118 l6 67 -162 0 c-166 0 -185 -4 -228 -43 -25 -22 -31 -83 -13 -118 26 -48
133 -66 170 -29 24 24 25 43 4 64 -20 21 -32 20 -72 -4 -44 -27 -72 -13 -72
34 0 57 22 67 142 64 l105 -3 -29 -229 c-16 -126 -27 -239 -24 -251 7 -26 30
-38 56 -30 10 3 52 71 96 156 l79 150 5 -148 c5 -146 5 -148 29 -151 13 -2 28
1 33 6 6 6 35 83 64 171 105 318 221 511 309 511 88 0 132 58 55 74 -14 2 -38
1 -53 -4z"/>
<path d="M2515 1246 c-78 -47 -195 -237 -250 -406 -28 -88 -35 -82 -35 32 0
58 -3 120 -6 137 -6 29 -10 32 -38 29 -29 -3 -36 -12 -94 -123 l-63 -120 6 80
c3 44 8 98 11 121 l6 41 -142 7 c-155 8 -195 20 -206 60 -10 41 -1 61 30 64
16 2 33 -1 39 -7 6 -6 26 -11 43 -11 24 0 34 5 39 20 10 30 -20 70 -53 72 -87
4 -124 -13 -142 -67 -10 -30 -9 -41 7 -72 24 -50 70 -71 171 -79 45 -4 84 -10
86 -13 2 -3 -10 -112 -25 -241 -31 -245 -29 -280 9 -280 27 0 43 21 110 155
95 186 91 186 92 13 0 -134 2 -148 19 -158 35 -18 56 17 110 186 81 249 179
433 258 485 15 11 44 19 63 19 42 0 80 24 80 49 0 38 -67 42 -125 7z"/>
<path d="M1529 1111 c21 -39 13 -77 -24 -112 -19 -19 -35 -41 -35 -50 0 -43
82 -65 127 -34 31 22 39 74 18 116 -20 39 -52 77 -78 91 -16 8 -17 7 -8 -11z"/>
<path d="M2615 1055 c-50 -26 -83 -75 -50 -75 9 0 18 -7 21 -15 3 -7 -22 -102
-55 -210 -34 -108 -61 -205 -61 -214 0 -26 21 -41 58 -41 27 0 43 9 73 39 43
43 49 61 19 61 -11 0 -20 3 -20 7 0 4 28 105 62 226 53 185 60 220 48 227 -22
14 -61 12 -95 -5z"/>
<path d="M2972 1053 c-32 -15 -72 -57 -72 -74 0 -5 12 -9 26 -9 19 0 25 -4 20
-15 -3 -9 -13 -41 -22 -73 -9 -31 -18 -59 -20 -61 -2 -2 -19 4 -38 14 -30 16
-40 17 -75 6 -65 -19 -106 -61 -125 -129 -20 -72 -20 -122 -2 -167 22 -52 56
-63 118 -41 36 13 53 15 61 7 23 -23 78 -12 113 23 36 36 43 56 20 56 -8 0
-17 4 -21 9 -3 6 22 107 57 227 59 208 61 217 43 230 -24 18 -42 17 -83 -3z
m-102 -268 c28 -33 -18 -206 -65 -245 -67 -55 -57 137 12 228 27 36 35 39 53
17z"/>
<path d="M2425 1015 c-41 -40 -28 -85 25 -85 31 0 70 37 70 66 0 48 -56 59
-95 19z"/>
<path d="M1333 982 c-37 -34 -55 -59 -62 -89 -9 -34 -16 -42 -38 -45 -32 -4
-44 -28 -14 -28 12 0 21 -3 21 -8 0 -4 -18 -66 -40 -137 -23 -71 -40 -141 -38
-155 4 -33 35 -37 85 -11 74 40 122 99 69 85 -13 -3 -26 -1 -30 4 -3 5 10 57
30 115 34 102 36 106 66 109 39 4 51 28 14 28 -13 0 -27 3 -29 8 -3 4 3 33 13
64 40 129 35 135 -47 60z"/>
<path d="M1042 870 c-18 -4 -50 -19 -71 -33 -77 -51 -125 -211 -86 -286 35
-68 146 -79 205 -20 44 44 39 65 -7 34 -54 -37 -108 -13 -101 45 2 20 9 26 33
28 56 5 75 12 109 43 103 90 47 219 -82 189z m58 -67 c0 -35 -49 -121 -72
-129 -54 -17 -42 74 18 134 37 37 54 35 54 -5z"/>
<path d="M2374 851 c-37 -17 -74 -53 -74 -73 0 -5 11 -8 25 -8 14 0 25 -1 25
-3 0 -2 -16 -50 -35 -107 -19 -57 -35 -112 -35 -122 0 -10 11 -25 25 -34 32
-21 84 -5 120 37 28 34 34 64 10 56 -27 -11 -26 12 5 118 34 120 36 140 14
149 -24 9 -35 7 -80 -13z"/>
<path d="M1540 843 c-35 -23 -80 -65 -80 -75 0 -4 9 -8 20 -8 11 0 20 -6 20
-13 0 -7 -18 -67 -40 -132 -22 -65 -40 -120 -40 -122 0 -2 24 -3 53 -3 l54 0
39 126 c38 123 61 161 83 139 7 -7 -1 -47 -21 -117 -17 -59 -28 -114 -25 -122
4 -9 17 -21 31 -27 32 -15 73 5 103 50 28 42 29 54 3 46 -27 -9 -26 0 15 129
25 81 32 113 23 123 -16 20 -45 16 -93 -12 l-43 -26 -22 31 c-24 34 -44 37
-80 13z"/>
</g>
</svg>
